# xmcd
#
# Track frame offsets:
#	150
#	15249
#	31193
#	46034
#	57560
#	72498
#	89185
#	105479
#	115309
#	129810
#	139239
#	151365
#	168922
#	183991
#	201063
#	214860
#	229184
#	242959
#
# Disc length: 3459 seconds
#
# Revision: 1
# Processed by: cddbd v1.5.2PL0 Copyright (c) Steve Scherf et al.
# Submitted via: audiograbber 1.83.01
#
DISCID=f70d8112
DTITLE=Brian Dolph - Sessions
DYEAR=2003
DGENRE=Country
TTITLE0=The Way That It Is
TTITLE1=Sweet Summer Rain
TTITLE2=The Easy Way Out
TTITLE3=Dancin' Round My Cowboy Hat
TTITLE4=Headin' Down to Mexico
TTITLE5=Scars of Old Sabres
TTITLE6=On Her Own
TTITLE7=A Rose Between Two Thorns
TTITLE8=One Day Blue
TTITLE9=Chickasaw Line
TTITLE10=You Got That Right
TTITLE11=My Girl Too
TTITLE12=Home Is Where the Heart Is
TTITLE13=I Won't Cry
TTITLE14=Blue in a Red Sunset
TTITLE15=No Place Left to Hide
TTITLE16=Honey, I Got Your Love
TTITLE17=You, Me and the Rain
EXTD=
EXTT0=
EXTT1=
EXTT2=
EXTT3=
EXTT4=
EXTT5=
EXTT6=
EXTT7=
EXTT8=
EXTT9=
EXTT10=
EXTT11=
EXTT12=
EXTT13=
EXTT14=
EXTT15=
EXTT16=
EXTT17=
PLAYORDER=
